<?xml version="1.0" encoding="utf-8"?>
<!-- Generator: Adobe Illustrator 18.0.0, SVG Export Plug-In . SVG Version: 6.00 Build 0)  -->
<!DOCTYPE svg PUBLIC "-//W3C//DTD SVG 1.1//EN" "http://www.w3.org/Graphics/SVG/1.1/DTD/svg11.dtd">
<svg version="1.1" id="ecommerce_1_" xmlns="http://www.w3.org/2000/svg" xmlns:xlink="http://www.w3.org/1999/xlink" x="0px"
	 y="0px" viewBox="0 0 115 115" style="enable-background:new 0 0 115 115;" xml:space="preserve">
<style type="text/css">
	.st0{fill:#FFEEAD;}
	.st1{fill:#C9B77D;}
	.st2{fill:#99734A;}
	.st3{fill:#FF6F69;}
	.st4{fill:#96CEB4;}
	.st5{fill:none;}
	.st6{fill:#AA9865;}
	.st7{fill:#71A58A;}
	.st8{fill:#FFCC5C;}
	.st9{fill:#825E3B;}
	.st10{fill:#639376;}
	.st11{fill:#E05858;}
	.st12{fill:#C1821E;}
	.st13{fill:#D6A041;}
	.st14{fill:#B28559;}
	.st15{fill:#BF4343;}
	.st16{fill:#D3C089;}
	.st17{fill:#7C5C3C;}
	.st18{fill:#FDCC5C;}
	.st19{fill:#FFFFFF;}
</style>
<g id="customer_service_1_">
	<g>
		<g>
			<circle class="st4" cx="57.5" cy="57.5" r="57.5"/>
		</g>
	</g>
	<g>
		<g>
			<path class="st7" d="M95.612,56.809c-0.075-0.065-0.161-0.116-0.239-0.178c-0.255-0.202-0.52-0.39-0.801-0.558
				c-0.13-0.078-0.265-0.145-0.401-0.215c-0.263-0.136-0.535-0.254-0.817-0.358c-0.023-0.008-0.043-0.021-0.066-0.029
				c0.08-0.291,0.131-0.629,0.108-1.078c-0.263-5.166-1.313-7.793-2.364-10.77c-0.931-2.639-2.071-4.515-4.208-3.934
				c-3.904-7.185-9.955-13.028-17.297-16.671c-0.262-1.992-1.869-3.858-4.251-4.407c-8.585-1.987-17.486-1.987-26.072,0
				c-2.226,0.513-3.761,2.18-4.169,4.022c-7.884,3.7-14.349,9.917-18.373,17.613c-2.199-0.666-3.361,1.224-4.306,3.902
				c-1.051,2.977-2.101,5.604-2.364,10.77c-0.034,0.664,0.059,1.138,0.24,1.468c-0.112,0.079-0.222,0.16-0.329,0.245
				c-0.078,0.062-0.164,0.113-0.239,0.178c-1.765,1.523-2.783,3.858-2.509,6.337L8.44,74.731c0.285,2.575,1.903,4.681,4.082,5.746
				c0.302,0.148,0.612,0.276,0.933,0.382c0.141,0.046,0.285,0.082,0.429,0.119c0.289,0.076,0.583,0.132,0.883,0.172
				c0.088,0.011,0.171,0.042,0.259,0.05v15.054c0.947,1.038,1.941,2.031,2.961,2.996h11.734c-1.546,1.895-2.866,3.98-3.935,6.208
				C34.878,111.483,45.776,115,57.5,115c7.907,0,15.439-1.598,22.296-4.485c1.004-0.56,1.997-1.136,2.963-1.752
				c-1.199-3.501-3.024-6.705-5.315-9.512h13.114V81.144c0.285-0.039,0.563-0.094,0.837-0.166c0.144-0.038,0.288-0.073,0.429-0.119
				c0.321-0.106,0.632-0.234,0.934-0.382c0.079-0.039,0.163-0.066,0.241-0.107l0,0c2.058-1.099,3.565-3.157,3.84-5.639l1.283-11.585
				C98.396,60.667,97.377,58.332,95.612,56.809z"/>
		</g>
	</g>
	<g>
		<g>
			<g>
				<rect x="20.63" y="50.716" class="st2" width="75.532" height="45.734"/>
			</g>
		</g>
		<g>
			<g>
				<path class="st3" d="M59.193,85.095c-14.177,0-26.09,9.573-29.704,22.599C37.781,112.331,47.324,115,57.5,115
					c11.37,0,21.94-3.344,30.863-9.039C84.208,93.829,72.733,85.095,59.193,85.095z"/>
			</g>
		</g>
		<g>
			<g>
				<path class="st11" d="M59.193,85.095c-8.509,0-16.186,3.465-21.759,9.039c5.95,3.286,12.788,5.162,20.066,5.162
					c8.144,0,15.735-2.351,22.148-6.399C74.208,88.053,67.055,85.095,59.193,85.095z"/>
			</g>
		</g>
		<g>
			<g>
				<ellipse class="st0" cx="57.5" cy="95.985" rx="12.364" ry="10.89"/>
			</g>
		</g>
		<g>
			<g>
				<path class="st1" d="M58.116,85.122c-1.379,0.048-2.733,0.185-4.059,0.409c-5.152,1.314-8.921,5.493-8.921,10.454
					c0,0.495,0.051,0.979,0.123,1.457c3.871,1.194,7.977,1.854,12.24,1.854c4.264,0,8.37-0.659,12.24-1.854
					c0.073-0.478,0.123-0.962,0.123-1.457C69.864,90.154,64.656,85.407,58.116,85.122z"/>
			</g>
		</g>
		<g>
			<g>
				<path class="st0" d="M57.5,16.088c-21.449,0-38.921,16.991-39.713,38.247h79.426C96.421,33.079,78.949,16.088,57.5,16.088z"/>
			</g>
		</g>
		<g>
			<g>
				<path class="st8" d="M96.637,40.821c-1.051-2.977-2.364-4.991-5.079-3.59c-2.714,1.401-3.678,2.802-1.489,6.83
					c2.189,4.028,1.926,6.392,2.014,6.655c0,0,7.18,6.042,6.917,0.876S97.688,43.798,96.637,40.821z"/>
			</g>
		</g>
		<g>
			<g>
				<path class="st8" d="M23.04,37.757c-2.714-1.401-4.028,0.613-5.079,3.59c-1.051,2.977-2.101,5.604-2.364,10.77
					c-0.263,5.166,6.917-0.876,6.917-0.876c0.088-0.263-0.175-2.627,2.014-6.655S25.755,39.158,23.04,37.757z"/>
			</g>
		</g>
		<g>
			<g>
				<path class="st8" d="M70.881,15.81c-8.585-1.987-17.486-1.987-26.072,0c-3.131,0.722-4.939,3.719-4.087,6.287
					c0.852,2.578,3.592,3.96,6.145,3.377c7.23-1.673,14.726-1.673,21.957,0c2.553,0.583,5.293-0.8,6.145-3.377
					C75.82,19.528,74.012,16.532,70.881,15.81z"/>
			</g>
		</g>
		<g>
			<g>
				<circle class="st0" cx="57.5" cy="57.728" r="38.721"/>
			</g>
		</g>
		<g>
			<g>
				<path class="st2" d="M57.5,19.007c-21.385,0-38.721,17.336-38.721,38.721c0,0.692,0.068,1.367,0.103,2.051
					c15.842-2.146,30.937-9.753,41.941-21.368c-1.128,5.94-3.494,11.641-6.902,16.635c13.747-1.382,26.685-8.694,35.352-19.415
					C82.278,25.591,70.665,19.007,57.5,19.007z"/>
			</g>
		</g>
		<g>
			<g>
				<ellipse class="st2" cx="41.375" cy="68.737" rx="4.477" ry="5.756"/>
			</g>
		</g>
		<g>
			<g>
				<ellipse class="st2" cx="70.579" cy="68.737" rx="4.477" ry="5.756"/>
			</g>
		</g>
		<g>
			<g>
				<path class="st2" d="M81.436,27.33l-1.904,12.063c0,0,13.532,16.74,15.086,29.313c1.029-3.483,1.603-7.161,1.603-10.978
					C96.221,45.388,90.429,34.42,81.436,27.33z"/>
			</g>
		</g>
		<g>
			<g>
				<path class="st7" d="M93.643,70.389c-0.34-0.277-0.845-0.225-1.122,0.115L80.393,85.405c-0.277,0.34-0.225,0.845,0.115,1.122
					c0.34,0.277,0.845,0.225,1.122-0.115l12.128-14.901C94.035,71.17,93.983,70.666,93.643,70.389z"/>
			</g>
		</g>
		<g>
			<g>
				<path class="st3" d="M51.108,83.421c0,3.53,2.862,6.392,6.392,6.392c3.53,0,6.392-2.862,6.392-6.392H51.108z"/>
			</g>
		</g>
		<g>
			<g>
				<path class="st3" d="M79.899,85.019h-1.844c-0.879,0-1.598,0.719-1.598,1.598c0,0.879,0.719,1.598,1.598,1.598h1.844
					c0.879,0,1.598-0.719,1.598-1.598C81.497,85.738,80.778,85.019,79.899,85.019z"/>
			</g>
		</g>
		<g>
			<g>
				<path class="st0" d="M97.268,52.279L97.268,52.279c-3.993-0.442-7.623,2.463-8.065,6.457l-1.283,11.585
					c-0.442,3.993,2.463,7.623,6.457,8.065c3.993,0.442,7.623-2.463,8.065-6.457l1.283-11.585
					C104.167,56.35,101.262,52.721,97.268,52.279z"/>
			</g>
		</g>
		<g>
			<g>
				<path class="st11" d="M97.399,59.97c0.288-2.599,1.781-4.767,3.817-5.963c-1.078-0.931-2.433-1.56-3.948-1.727
					c-3.993-0.442-7.623,2.463-8.065,6.457l-1.283,11.585c-0.442,3.993,2.444,7.677,6.438,8.119
					c1.512,0.167,2.989-0.203,4.244-0.873c-1.722-1.614-2.703-4.052-2.416-6.649L97.399,59.97z"/>
			</g>
		</g>
		<g>
			<g>
				<path class="st8" d="M97.399,59.97c0.288-2.599,1.781-4.766,3.817-5.963c-0.25-0.216-0.523-0.417-0.802-0.598
					c-2.016,1.266-3.506,3.539-3.804,6.229L95.345,71.07c-0.298,2.688,0.664,5.227,2.352,6.903c0.312-0.116,0.615-0.25,0.906-0.405
					c-1.722-1.614-2.703-4.052-2.416-6.649L97.399,59.97z"/>
			</g>
		</g>
		<g>
			<g>
				
					<ellipse transform="matrix(0.11 -0.9939 0.9939 0.11 24.5154 158.7061)" class="st8" cx="100.881" cy="65.663" rx="7.909" ry="1.347"/>
			</g>
		</g>
		<g>
			<g>
				<path class="st0" d="M28.565,70.321l-1.283-11.585c-0.442-3.993-4.071-6.899-8.065-6.457c-3.993,0.442-6.899,4.071-6.457,8.065
					l1.283,11.585c0.442,3.993,4.071,6.899,8.065,6.457C26.102,77.944,29.007,74.315,28.565,70.321z"/>
			</g>
		</g>
		<g>
			<g>
				<path class="st11" d="M28.565,70.321l-1.283-11.585c-0.442-3.993-4.071-6.899-8.065-6.457c-1.515,0.168-2.87,0.797-3.948,1.727
					c2.036,1.197,3.529,3.364,3.817,5.963l1.212,10.948c0.287,2.597-0.693,5.036-2.416,6.649c1.255,0.67,2.711,1.02,4.224,0.853
					C26.101,77.978,29.007,74.315,28.565,70.321z"/>
			</g>
		</g>
		<g>
			<g>
				<path class="st8" d="M21.141,71.07l-1.266-11.431c-0.298-2.691-1.779-4.965-3.796-6.231c-0.278,0.181-0.56,0.383-0.81,0.599
					c2.036,1.197,3.529,3.364,3.817,5.963l1.212,10.948c0.287,2.597-0.693,5.036-2.416,6.649c0.291,0.156,0.576,0.29,0.888,0.405
					C20.459,76.297,21.439,73.757,21.141,71.07z"/>
			</g>
		</g>
		<g>
			<g>
				
					<ellipse transform="matrix(0.9939 -0.11 0.11 0.9939 -7.1297 2.1155)" class="st8" cx="15.605" cy="65.663" rx="1.347" ry="7.909"/>
			</g>
		</g>
		<g>
			<g>
				<path class="st2" d="M74.868,62.261c0.007,0.609-0.429,1.123-0.84,1.573c-0.298,0.326-0.679,0.683-1.113,0.602l0.716,1.611
					c0.687-0.3,1.234-0.903,1.467-1.615C75.331,63.719,75.245,62.908,74.868,62.261z"/>
			</g>
		</g>
		<g>
			<g>
				<path class="st2" d="M37.59,63.834c-0.411-0.45-0.847-0.963-0.84-1.573c-0.377,0.648-0.463,1.458-0.23,2.17
					c0.233,0.712,0.78,1.315,1.467,1.615l0.716-1.611C38.269,64.516,37.888,64.16,37.59,63.834z"/>
			</g>
		</g>
	</g>
</g>
</svg>
