<?xml version="1.0" encoding="utf-8"?>
<!-- Generator: Adobe Illustrator 22.0.0, SVG Export Plug-In . SVG Version: 6.00 Build 0)  -->
<svg version="1.1" xmlns="http://www.w3.org/2000/svg" xmlns:xlink="http://www.w3.org/1999/xlink" x="0px" y="0px"
	 viewBox="0 0 512 512" style="enable-background:new 0 0 512 512;" xml:space="preserve">
<style type="text/css">
	.st0{fill:#E1902B;}
	.st1{fill:#3D2A3D;}
	.st2{fill:#E7AD84;}
	.st3{fill:#2961A5;}
	.st4{fill:#FFD66C;}
	.st5{fill:#A18FA1;}
	.st6{fill:#DB4646;}
	.st7{fill:#78BEDE;}
	.st8{fill:#43B06D;}
	.st9{fill:#9EC853;}
	.st10{fill:#217D44;}
	.st11{fill:#DBDBDB;}
	.st12{fill:#FFFFFF;}
	.st13{fill:#C41E1E;}
	.st14{fill:#B9BDC2;}
	.st15{fill:#856685;}
	.st16{fill:#E8E8E8;}
	.st17{fill:#BDBDBD;}
	.st18{fill:#839797;}
	.st19{fill:#D9D9D9;}
	.st20{fill:#F0F0F0;}
	.st21{fill:#BFBFBF;}
	.st22{fill:#706470;}
	.st23{fill:#4B1E4C;}
	.st24{fill:#614F61;}
	.st25{fill:#A37352;}
	.st26{fill:#7A6C7A;}
	.st27{fill:#919191;}
	.st28{fill:#6E6E6E;}
	.st29{fill:#B8B8B8;}
	.st30{fill:#FF826E;}
	.st31{fill:#7D5737;}
	.st32{fill:#2E1B17;}
	.st33{fill:#483324;}
	.st34{fill:#9E9E9E;}
	.st35{fill:#7D6F7D;}
	.st36{fill:#6B4A6B;}
	.st37{fill:#4A80C2;}
	.st38{fill:#B34B0F;}
	.st39{fill:#FFC682;}
	.st40{clip-path:url(#SVGID_2_);fill:#DBDBDB;}
	.st41{fill:#FFDBC5;}
	.st42{fill:#E3E3E3;}
	.st43{clip-path:url(#SVGID_4_);}
	.st44{clip-path:url(#SVGID_6_);fill:#DBDBDB;}
	.st45{clip-path:url(#SVGID_8_);}
	.st46{fill:#E8B494;}
	.st47{fill:#F2D7C4;}
	.st48{fill:#5D5660;}
	.st49{fill:#3B2D3F;}
	.st50{fill:#756275;}
	.st51{fill:#E1622B;}
	.st52{fill:#F0E9E9;}
	.st53{fill:#4D917B;}
	.st54{fill:#C4C4C4;}
	.st55{fill:#14855A;}
	.st56{fill:#C21B1B;}
</style>
<g id="Layer_9">
	<path class="st5" d="M512,256c0,141.4-114.6,256-256,256C114.6,512,0,397.4,0,256C0,114.6,114.6,0,256,0C397.4,0,512,114.6,512,256
		z"/>
</g>
<g id="Layer_7">
	<g>
		<g>
			<g>
				<path class="st20" d="M353.9,335.6c27,7.5,55-8.4,62.4-35.3c7.5-27-8.3-54.9-35.3-62.4c-27-7.5-54.9,8.3-62.4,35.3
					C311.1,300.2,326.9,328.1,353.9,335.6z M359.9,314.1c-15.1-4.2-24-19.9-19.8-35c4.2-15.1,19.9-24,35-19.8
					c15.2,4.2,24,19.9,19.8,35C390.7,309.4,375,318.3,359.9,314.1z"/>
			</g>
			<g>
				<path class="st20" d="M94.4,174.7l195.1,60.7c-10.3,23.5-58.9,29.6-111.2,13.3C126.1,232.5,89.5,199.9,94.4,174.7z"/>
				
					<rect x="285.1" y="215.1" transform="matrix(0.2972 -0.9548 0.9548 0.2972 -30.5565 460.4416)" class="st20" width="24.8" height="71.8"/>
			</g>
		</g>
		<g>
			<g>
				<path class="st20" d="M274.6,317.1c-27,7.5-42.8,35.4-35.3,62.4c7.5,27,35.4,42.8,62.4,35.4c27-7.5,42.8-35.5,35.3-62.4
					C329.5,325.5,301.6,309.7,274.6,317.1z M295.7,393.4c-15.1,4.2-30.8-4.7-35-19.8c-4.2-15.1,4.7-30.8,19.8-35
					c15.1-4.2,30.8,4.7,35,19.8C319.8,373.6,310.9,389.2,295.7,393.4z"/>
			</g>
			<g>
				<path class="st20" d="M176.2,92.9L236.9,288c23.5-10.3,29.6-58.9,13.3-111.2S201.4,88.1,176.2,92.9z"/>
				
					<rect x="240" y="260.2" transform="matrix(0.9548 -0.2972 0.2972 0.9548 -76.5824 88.3871)" class="st20" width="24.8" height="71.8"/>
			</g>
		</g>
		<path class="st21" d="M243.4,224.3c5.4,5.4,5.4,14.1,0,19.4c-5.4,5.4-14,5.4-19.4,0c-5.4-5.4-5.4-14,0-19.4
			C229.3,219,238,219,243.4,224.3z"/>
	</g>
</g>
</svg>
