<svg xmlns="http://www.w3.org/2000/svg" xmlns:xlink="http://www.w3.org/1999/xlink" viewBox="0 0 206.77 228.36"><defs><style>.cls-1{isolation:isolate;}.cls-2{opacity:0.4;mix-blend-mode:multiply;fill:url(#linear-gradient);}.cls-3{fill:#cec09f;}.cls-3,.cls-5{stroke:#212683;stroke-miterlimit:10;stroke-width:6px;}.cls-4{fill:#212683;}.cls-5{fill:none;}</style><linearGradient id="linear-gradient" x1="2.38" y1="114.18" x2="206.77" y2="114.18" gradientUnits="userSpaceOnUse"><stop offset="0" stop-color="#efa6c2"/><stop offset="1" stop-color="#96cdbd"/></linearGradient></defs><title>Paw</title><g class="cls-1"><g id="Layer_2" data-name="Layer 2"><g id="Layer_1-2" data-name="Layer 1"><path class="cls-2" d="M150.08,95A56.58,56.58,0,0,0,131,98.29a67.89,67.89,0,1,0-100,24.92,56.69,56.69,0,1,0,81.52,70.85A56.68,56.68,0,1,0,150.08,95Z"/><path class="cls-3" d="M92.45,183.38a61.38,61.38,0,0,0-30.07,15.35A9.84,9.84,0,0,1,46.48,195a61.65,61.65,0,1,1,115.83-.18,9.87,9.87,0,0,1-16,3.9,61.43,61.43,0,0,0-30.07-15.35"/><circle class="cls-3" cx="26.73" cy="120.16" r="17.18" transform="translate(-43.76 19.24) rotate(-22.39)"/><circle class="cls-3" cx="67.78" cy="71.49" r="17.18" transform="translate(-22.12 31.21) rotate(-22.39)"/><circle class="cls-3" cx="181.98" cy="120.16" r="17.18" transform="translate(1.56 242.65) rotate(-67.61)"/><circle class="cls-3" cx="140.93" cy="71.49" r="17.18" transform="translate(21.15 174.57) rotate(-67.61)"/><circle class="cls-4" cx="104.35" cy="182.24" r="3.19"/><path class="cls-5" d="M89.72,137h0a20.84,20.84,0,0,0-20.84,20.84V158"/><path class="cls-4" d="M15.7,47.82H12.95V45.06a3.4,3.4,0,0,0-6.79,0v2.76H3.4a3.4,3.4,0,0,0,0,6.79H6.15v2.76a3.4,3.4,0,0,0,6.79,0V54.61H15.7a3.4,3.4,0,0,0,0-6.79Z"/><path class="cls-4" d="M188.13,57.37h-2.76V54.61a3.4,3.4,0,0,0-6.79,0v2.76h-2.76a3.4,3.4,0,0,0,0,6.79h2.76v2.76a3.4,3.4,0,0,0,6.79,0V64.16h2.76a3.4,3.4,0,0,0,0-6.79Z"/><path class="cls-4" d="M25.25,203.82H22.5v-2.76a3.4,3.4,0,0,0-6.79,0v2.76H12.95a3.4,3.4,0,0,0,0,6.79H15.7v2.76a3.4,3.4,0,0,0,6.79,0v-2.76h2.76a3.4,3.4,0,0,0,0-6.79Z"/></g></g></g></svg>